<mxfile host="app.diagrams.net" modified="2023-08-09T18:03:32.487Z" agent="Mozilla/5.0 (Windows NT 10.0; Win64; x64) AppleWebKit/537.36 (KHTML, like Gecko) Chrome/115.0.0.0 Safari/537.36" etag="_fBQ6zi7Eb28eWE1OGUI" version="21.6.6" type="google">
  <diagram name="Página-1" id="_s-7BlVap8LJwLteyGIJ">
    <mxGraphModel grid="1" page="1" gridSize="10" guides="1" tooltips="1" connect="1" arrows="1" fold="1" pageScale="1" pageWidth="827" pageHeight="1169" math="0" shadow="0">
      <root>
        <mxCell id="0" />
        <mxCell id="1" parent="0" />
        <mxCell id="M8nzN9d_kLPcXdD-NjU2-3" value="" style="edgeStyle=orthogonalEdgeStyle;rounded=0;orthogonalLoop=1;jettySize=auto;html=1;" edge="1" parent="1" source="M8nzN9d_kLPcXdD-NjU2-1" target="M8nzN9d_kLPcXdD-NjU2-2">
          <mxGeometry relative="1" as="geometry" />
        </mxCell>
        <mxCell id="P3LALz3QClFGhnY-o2U3-9" style="edgeStyle=orthogonalEdgeStyle;rounded=0;orthogonalLoop=1;jettySize=auto;html=1;entryX=0.5;entryY=0;entryDx=0;entryDy=0;" edge="1" parent="1" source="M8nzN9d_kLPcXdD-NjU2-1" target="P3LALz3QClFGhnY-o2U3-7">
          <mxGeometry relative="1" as="geometry" />
        </mxCell>
        <mxCell id="M8nzN9d_kLPcXdD-NjU2-1" value="Projeto" style="rounded=1;whiteSpace=wrap;html=1;" vertex="1" parent="1">
          <mxGeometry x="440" y="20" width="120" height="60" as="geometry" />
        </mxCell>
        <mxCell id="M8nzN9d_kLPcXdD-NjU2-11" value="" style="edgeStyle=orthogonalEdgeStyle;rounded=0;orthogonalLoop=1;jettySize=auto;html=1;" edge="1" parent="1" source="M8nzN9d_kLPcXdD-NjU2-18" target="M8nzN9d_kLPcXdD-NjU2-8">
          <mxGeometry relative="1" as="geometry" />
        </mxCell>
        <mxCell id="M8nzN9d_kLPcXdD-NjU2-14" value="" style="edgeStyle=orthogonalEdgeStyle;rounded=0;orthogonalLoop=1;jettySize=auto;html=1;" edge="1" parent="1" source="M8nzN9d_kLPcXdD-NjU2-16" target="M8nzN9d_kLPcXdD-NjU2-1">
          <mxGeometry relative="1" as="geometry">
            <mxPoint x="350" y="70" as="targetPoint" />
          </mxGeometry>
        </mxCell>
        <mxCell id="M8nzN9d_kLPcXdD-NjU2-19" value="" style="edgeStyle=orthogonalEdgeStyle;rounded=0;orthogonalLoop=1;jettySize=auto;html=1;" edge="1" parent="1" source="M8nzN9d_kLPcXdD-NjU2-2" target="M8nzN9d_kLPcXdD-NjU2-18">
          <mxGeometry relative="1" as="geometry" />
        </mxCell>
        <mxCell id="P3LALz3QClFGhnY-o2U3-5" style="edgeStyle=orthogonalEdgeStyle;rounded=0;orthogonalLoop=1;jettySize=auto;html=1;exitX=0;exitY=1;exitDx=0;exitDy=0;entryX=0.5;entryY=0;entryDx=0;entryDy=0;" edge="1" parent="1" source="M8nzN9d_kLPcXdD-NjU2-2" target="M8nzN9d_kLPcXdD-NjU2-4">
          <mxGeometry relative="1" as="geometry" />
        </mxCell>
        <mxCell id="P3LALz3QClFGhnY-o2U3-6" style="edgeStyle=orthogonalEdgeStyle;rounded=0;orthogonalLoop=1;jettySize=auto;html=1;exitX=1;exitY=1;exitDx=0;exitDy=0;entryX=0.5;entryY=0;entryDx=0;entryDy=0;" edge="1" parent="1" source="M8nzN9d_kLPcXdD-NjU2-2" target="M8nzN9d_kLPcXdD-NjU2-6">
          <mxGeometry relative="1" as="geometry" />
        </mxCell>
        <mxCell id="P3LALz3QClFGhnY-o2U3-12" style="edgeStyle=orthogonalEdgeStyle;rounded=0;orthogonalLoop=1;jettySize=auto;html=1;exitX=0.25;exitY=1;exitDx=0;exitDy=0;entryX=0.5;entryY=0;entryDx=0;entryDy=0;" edge="1" parent="1" source="M8nzN9d_kLPcXdD-NjU2-2" target="P3LALz3QClFGhnY-o2U3-10">
          <mxGeometry relative="1" as="geometry" />
        </mxCell>
        <mxCell id="M8nzN9d_kLPcXdD-NjU2-2" value="planejamento" style="rounded=1;whiteSpace=wrap;html=1;" vertex="1" parent="1">
          <mxGeometry x="60" y="110" width="120" height="60" as="geometry" />
        </mxCell>
        <mxCell id="M8nzN9d_kLPcXdD-NjU2-4" value="exigencias de habitabilidade&lt;br&gt;" style="whiteSpace=wrap;html=1;rounded=1;" vertex="1" parent="1">
          <mxGeometry x="-220" y="210" width="120" height="60" as="geometry" />
        </mxCell>
        <mxCell id="M8nzN9d_kLPcXdD-NjU2-6" value="vontades do cliente/contrato" style="whiteSpace=wrap;html=1;rounded=1;" vertex="1" parent="1">
          <mxGeometry x="190" y="210" width="120" height="60" as="geometry" />
        </mxCell>
        <mxCell id="P3LALz3QClFGhnY-o2U3-2" value="" style="edgeStyle=orthogonalEdgeStyle;rounded=0;orthogonalLoop=1;jettySize=auto;html=1;" edge="1" parent="1" source="M8nzN9d_kLPcXdD-NjU2-8" target="P3LALz3QClFGhnY-o2U3-1">
          <mxGeometry relative="1" as="geometry" />
        </mxCell>
        <mxCell id="M8nzN9d_kLPcXdD-NjU2-8" value="elaboração do projeto de desenhos/ lista de materiais conforme as exigencias" style="rounded=1;whiteSpace=wrap;html=1;" vertex="1" parent="1">
          <mxGeometry x="60" y="310" width="120" height="60" as="geometry" />
        </mxCell>
        <mxCell id="M8nzN9d_kLPcXdD-NjU2-17" value="" style="edgeStyle=orthogonalEdgeStyle;rounded=0;orthogonalLoop=1;jettySize=auto;html=1;" edge="1" parent="1" source="M8nzN9d_kLPcXdD-NjU2-20" target="M8nzN9d_kLPcXdD-NjU2-16">
          <mxGeometry relative="1" as="geometry">
            <mxPoint x="180" y="140" as="sourcePoint" />
            <mxPoint x="414" y="80" as="targetPoint" />
          </mxGeometry>
        </mxCell>
        <mxCell id="P3LALz3QClFGhnY-o2U3-8" value="" style="edgeStyle=orthogonalEdgeStyle;rounded=0;orthogonalLoop=1;jettySize=auto;html=1;" edge="1" parent="1" source="M8nzN9d_kLPcXdD-NjU2-16" target="P3LALz3QClFGhnY-o2U3-7">
          <mxGeometry relative="1" as="geometry" />
        </mxCell>
        <mxCell id="M8nzN9d_kLPcXdD-NjU2-16" value="revisão(status: aprovado/negado)" style="rounded=1;whiteSpace=wrap;html=1;" vertex="1" parent="1">
          <mxGeometry x="440" y="110" width="120" height="60" as="geometry" />
        </mxCell>
        <mxCell id="P3LALz3QClFGhnY-o2U3-1" value="Puxar valores da SINAPI e verificar mão de obra" style="whiteSpace=wrap;html=1;rounded=1;" vertex="1" parent="1">
          <mxGeometry x="60" y="420" width="120" height="60" as="geometry" />
        </mxCell>
        <mxCell id="P3LALz3QClFGhnY-o2U3-7" value="tramitação(status: executando/planejando" style="whiteSpace=wrap;html=1;rounded=1;" vertex="1" parent="1">
          <mxGeometry x="680" y="210" width="120" height="70" as="geometry" />
        </mxCell>
        <mxCell id="P3LALz3QClFGhnY-o2U3-10" value="terreno" style="rounded=1;whiteSpace=wrap;html=1;" vertex="1" parent="1">
          <mxGeometry x="-80" y="210" width="120" height="60" as="geometry" />
        </mxCell>
        <mxCell id="P3LALz3QClFGhnY-o2U3-11" value="" style="edgeStyle=orthogonalEdgeStyle;rounded=0;orthogonalLoop=1;jettySize=auto;html=1;" edge="1" parent="1" source="M8nzN9d_kLPcXdD-NjU2-2" target="M8nzN9d_kLPcXdD-NjU2-20">
          <mxGeometry relative="1" as="geometry">
            <mxPoint x="180" y="140" as="sourcePoint" />
            <mxPoint x="440" y="140" as="targetPoint" />
          </mxGeometry>
        </mxCell>
        <mxCell id="M8nzN9d_kLPcXdD-NjU2-20" value="cronograma" style="rounded=1;whiteSpace=wrap;html=1;" vertex="1" parent="1">
          <mxGeometry x="294" y="110" width="120" height="60" as="geometry" />
        </mxCell>
        <mxCell id="P3LALz3QClFGhnY-o2U3-13" value="" style="edgeStyle=orthogonalEdgeStyle;rounded=0;orthogonalLoop=1;jettySize=auto;html=1;" edge="1" parent="1" source="M8nzN9d_kLPcXdD-NjU2-2" target="M8nzN9d_kLPcXdD-NjU2-18">
          <mxGeometry relative="1" as="geometry">
            <mxPoint x="120" y="170" as="sourcePoint" />
            <mxPoint x="120" y="420" as="targetPoint" />
          </mxGeometry>
        </mxCell>
        <mxCell id="M8nzN9d_kLPcXdD-NjU2-18" value="Tramitação: a parte legal da localidade, puxar taxas e impostos" style="whiteSpace=wrap;html=1;rounded=1;" vertex="1" parent="1">
          <mxGeometry x="60" y="210" width="120" height="60" as="geometry" />
        </mxCell>
        <mxCell id="P3LALz3QClFGhnY-o2U3-14" value="retorna-&amp;gt;" style="text;html=1;strokeColor=none;fillColor=none;align=center;verticalAlign=middle;whiteSpace=wrap;rounded=0;" vertex="1" parent="1">
          <mxGeometry x="200" y="110" width="60" height="30" as="geometry" />
        </mxCell>
        <mxCell id="P3LALz3QClFGhnY-o2U3-36" style="edgeStyle=orthogonalEdgeStyle;rounded=0;orthogonalLoop=1;jettySize=auto;html=1;exitX=0.5;exitY=0;exitDx=0;exitDy=0;entryX=0;entryY=0;entryDx=0;entryDy=0;" edge="1" parent="1" source="P3LALz3QClFGhnY-o2U3-15" target="P3LALz3QClFGhnY-o2U3-34">
          <mxGeometry relative="1" as="geometry" />
        </mxCell>
        <mxCell id="P3LALz3QClFGhnY-o2U3-15" value="estoque" style="whiteSpace=wrap;html=1;rounded=1;" vertex="1" parent="1">
          <mxGeometry x="400" y="470" width="120" height="60" as="geometry" />
        </mxCell>
        <mxCell id="P3LALz3QClFGhnY-o2U3-30" style="edgeStyle=orthogonalEdgeStyle;rounded=0;orthogonalLoop=1;jettySize=auto;html=1;exitX=0.5;exitY=0;exitDx=0;exitDy=0;entryX=0.5;entryY=1;entryDx=0;entryDy=0;" edge="1" parent="1" source="P3LALz3QClFGhnY-o2U3-17" target="P3LALz3QClFGhnY-o2U3-34">
          <mxGeometry relative="1" as="geometry" />
        </mxCell>
        <mxCell id="P3LALz3QClFGhnY-o2U3-17" value="equipe" style="whiteSpace=wrap;html=1;rounded=1;" vertex="1" parent="1">
          <mxGeometry x="680" y="470" width="120" height="60" as="geometry" />
        </mxCell>
        <mxCell id="P3LALz3QClFGhnY-o2U3-35" style="edgeStyle=orthogonalEdgeStyle;rounded=0;orthogonalLoop=1;jettySize=auto;html=1;exitX=0.5;exitY=0;exitDx=0;exitDy=0;entryX=1;entryY=0;entryDx=0;entryDy=0;" edge="1" parent="1" source="P3LALz3QClFGhnY-o2U3-19" target="P3LALz3QClFGhnY-o2U3-34">
          <mxGeometry relative="1" as="geometry" />
        </mxCell>
        <mxCell id="P3LALz3QClFGhnY-o2U3-19" value="status legal" style="whiteSpace=wrap;html=1;rounded=1;" vertex="1" parent="1">
          <mxGeometry x="970" y="470" width="120" height="60" as="geometry" />
        </mxCell>
        <mxCell id="P3LALz3QClFGhnY-o2U3-29" style="edgeStyle=orthogonalEdgeStyle;rounded=0;orthogonalLoop=1;jettySize=auto;html=1;exitX=0.5;exitY=0;exitDx=0;exitDy=0;entryX=0;entryY=0.5;entryDx=0;entryDy=0;" edge="1" parent="1" source="P3LALz3QClFGhnY-o2U3-22" target="P3LALz3QClFGhnY-o2U3-34">
          <mxGeometry relative="1" as="geometry" />
        </mxCell>
        <mxCell id="P3LALz3QClFGhnY-o2U3-22" value="contatos" style="rounded=1;whiteSpace=wrap;html=1;" vertex="1" parent="1">
          <mxGeometry x="540" y="470" width="120" height="60" as="geometry" />
        </mxCell>
        <mxCell id="P3LALz3QClFGhnY-o2U3-31" style="edgeStyle=orthogonalEdgeStyle;rounded=0;orthogonalLoop=1;jettySize=auto;html=1;exitX=0.5;exitY=0;exitDx=0;exitDy=0;entryX=1;entryY=0.5;entryDx=0;entryDy=0;" edge="1" parent="1" source="P3LALz3QClFGhnY-o2U3-24" target="P3LALz3QClFGhnY-o2U3-34">
          <mxGeometry relative="1" as="geometry" />
        </mxCell>
        <mxCell id="P3LALz3QClFGhnY-o2U3-24" value="acabamentos" style="rounded=1;whiteSpace=wrap;html=1;" vertex="1" parent="1">
          <mxGeometry x="827" y="470" width="120" height="60" as="geometry" />
        </mxCell>
        <mxCell id="P3LALz3QClFGhnY-o2U3-33" style="edgeStyle=orthogonalEdgeStyle;rounded=0;orthogonalLoop=1;jettySize=auto;html=1;exitX=0.5;exitY=0;exitDx=0;exitDy=0;entryX=0.5;entryY=1;entryDx=0;entryDy=0;" edge="1" parent="1" source="P3LALz3QClFGhnY-o2U3-26" target="P3LALz3QClFGhnY-o2U3-7">
          <mxGeometry relative="1" as="geometry" />
        </mxCell>
        <mxCell id="P3LALz3QClFGhnY-o2U3-26" value="caixa/relatorio" style="rounded=1;whiteSpace=wrap;html=1;" vertex="1" parent="1">
          <mxGeometry x="680" y="300" width="120" height="60" as="geometry" />
        </mxCell>
        <mxCell id="P3LALz3QClFGhnY-o2U3-37" style="edgeStyle=orthogonalEdgeStyle;rounded=0;orthogonalLoop=1;jettySize=auto;html=1;exitX=0.5;exitY=0;exitDx=0;exitDy=0;entryX=0.5;entryY=1;entryDx=0;entryDy=0;" edge="1" parent="1" source="P3LALz3QClFGhnY-o2U3-34" target="P3LALz3QClFGhnY-o2U3-26">
          <mxGeometry relative="1" as="geometry" />
        </mxCell>
        <mxCell id="P3LALz3QClFGhnY-o2U3-34" value="fluxo de caixa/relatorio" style="rounded=1;whiteSpace=wrap;html=1;" vertex="1" parent="1">
          <mxGeometry x="680" y="390" width="120" height="60" as="geometry" />
        </mxCell>
      </root>
    </mxGraphModel>
  </diagram>
</mxfile>
